<svg width="20" height="21" viewBox="0 0 20 21" fill="none" xmlns="http://www.w3.org/2000/svg">
<g clip-path="url(#clip0_1294_6953)">
<path d="M15.8333 0.5H4.16667C1.86917 0.5 0 2.36917 0 4.66667V16.3333C0 18.6308 1.86917 20.5 4.16667 20.5H15.8333C18.1308 20.5 20 18.6308 20 16.3333V4.66667C20 2.36917 18.1308 0.5 15.8333 0.5ZM18.3333 16.3333C18.3333 17.7117 17.2117 18.8333 15.8333 18.8333H4.16667C2.78833 18.8333 1.66667 17.7117 1.66667 16.3333V4.66667C1.66667 3.28833 2.78833 2.16667 4.16667 2.16667H15.8333C17.2117 2.16667 18.3333 3.28833 18.3333 4.66667V16.3333ZM14.8067 10.04C15.0642 10.2942 15.0642 10.7058 14.8067 10.96L11.125 14.5942C10.71 15.0042 10 14.7133 10 14.1342V11.3333H5.83333C5.3725 11.3333 5 10.96 5 10.5C5 10.04 5.3725 9.66667 5.83333 9.66667H10V6.86583C10 6.28667 10.71 5.99583 11.125 6.40583L14.8067 10.04Z" fill="#DEDEDE"/>
</g>
<defs>
<clipPath id="clip0_1294_6953">
<rect width="20" height="20" fill="white" transform="translate(0 0.5)"/>
</clipPath>
</defs>
</svg>
